# xmcd
#
# Track frame offsets:
#	150
#	19333
#	37426
#	50710
#	71525
#	86424
#	100493
#	114926
#	131228
#	142731
#	161150
#	181115
#	198136
#	215976
#	232104
#	249346
#	266605
#	282286
#	291002
#
# Disc length: 3935 seconds
#
# Revision: 1
# Processed by: cddbd v1.5.1PL0 Copyright (c) Steve Scherf et al.
# Submitted via: audiograbber 1.82.02
#
DISCID=250f5d13
DTITLE=Kubera, Konrad and Höller - the red one
DYEAR=2004
DGENRE=Acoustic
TTITLE0=Killing Me Softly
TTITLE1=Might As Well Have A Good Time
TTITLE2=Don't Know Why
TTITLE3=Wish You Were Here
TTITLE4=All Cried Out
TTITLE5=Fragile
TTITLE6=Follow Me
TTITLE7=Es Tuat So Weh, Wenn Ma Verliert
TTITLE8=Sweet Meant To Be
TTITLE9=Lucky Man
TTITLE10=Vü Schöner Is Des G'fühl
TTITLE11=True Colors
TTITLE12=Wild World
TTITLE13=Dust In The Wind
TTITLE14=Langsam Wachs Ma Zamm
TTITLE15=Time After Time
TTITLE16=Listen To The Music
TTITLE17=Daylight Again
TTITLE18=Find The Cost Of Freedom
EXTD=
EXTT0=
EXTT1=
EXTT2=
EXTT3=
EXTT4=
EXTT5=
EXTT6=
EXTT7=
EXTT8=
EXTT9=
EXTT10=
EXTT11=
EXTT12=
EXTT13=
EXTT14=
EXTT15=
EXTT16=
EXTT17=
EXTT18=
PLAYORDER=
